<svg width="42" height="42" viewBox="0 0 42 42" fill="none" xmlns="http://www.w3.org/2000/svg">
<path d="M41.2995 33.2497H40.5218C42.4553 31.368 42.4974 28.2751 40.6158 26.3416C40.3172 26.0348 39.9797 25.7686 39.6118 25.5498C41.0905 24.6668 41.997 23.0722 41.9995 21.3498C41.996 18.6452 39.8042 16.4534 37.0995 16.4499H30.7996V11.55C30.7994 11.1634 30.4859 10.8501 30.0994 10.8502C30.0638 10.8502 30.0283 10.853 29.9932 10.8584L21.6997 12.1338V11.48C23.3282 11.1451 24.4976 9.71258 24.4997 8.05001C24.4997 4.99525 21.6178 2.07769 21.4946 1.95519C21.2213 1.68193 20.7782 1.68193 20.5048 1.95519C20.3816 2.07769 17.4998 4.99525 17.4998 8.05001C17.5019 9.71258 18.6713 11.1451 20.2997 11.48V12.3501L11.7935 13.659C11.4523 13.7115 11.2003 14.0047 11.1999 14.3499V22.1485C10.6886 21.5971 10.099 21.1239 9.44988 20.7444C9.23332 20.6193 8.96645 20.6193 8.74989 20.7444C6.68282 21.9454 5.28738 24.035 4.96994 26.4045C4.48616 26.3053 3.9938 26.2535 3.49996 26.2498C3.191 26.2512 2.88248 26.2712 2.57597 26.31C2.32765 26.3399 2.11424 26.5 2.01598 26.73C0.589568 30.0759 1.70124 33.9636 4.68084 36.0497H0V37.4496H1.66738L2.87346 39.8625C2.99203 40.0998 3.23466 40.2497 3.49996 40.2496H30.0996C30.4862 40.2496 30.7996 39.9362 30.7996 39.5496V37.4496H35.267L36.473 39.8625C36.5916 40.0998 36.8342 40.2497 37.0995 40.2496H39.8995C40.2861 40.2496 40.5995 39.9362 40.5995 39.5496V37.4496H41.2995C41.6861 37.4496 41.9995 37.1362 41.9995 36.7497V33.9497C41.9995 33.5631 41.6861 33.2497 41.2995 33.2497ZM40.5995 29.7497C40.5972 31.6817 39.0315 33.2474 37.0995 33.2497H24.4997C22.5668 33.2497 20.9997 31.6827 20.9997 29.7497C20.9997 27.8168 22.5668 26.2498 24.4997 26.2498H33.5996C34.7594 26.2498 35.6996 27.19 35.6996 28.3498C35.6996 29.5096 34.7594 30.4497 33.5996 30.4497H26.5997C26.2131 30.4497 25.8997 30.1363 25.8997 29.7497C25.8997 29.3632 26.2131 29.0497 26.5997 29.0497H31.4996V27.6498H26.5997C25.4399 27.6498 24.4997 28.5899 24.4997 29.7497C24.4997 30.9095 25.4399 31.8497 26.5997 31.8497H33.5996C35.5316 31.8474 37.0973 30.2817 37.0995 28.3498C37.097 27.5899 36.8446 26.852 36.3813 26.2498H37.0995C39.0315 26.2521 40.5972 27.8178 40.5995 29.7497ZM34.9996 17.8499C36.1594 17.8499 37.0995 18.7901 37.0995 19.9499C37.0995 21.1097 36.1594 22.0498 34.9996 22.0498H27.9997C27.6131 22.0498 27.2997 21.7364 27.2997 21.3498C27.2997 20.9633 27.6131 20.6499 27.9997 20.6499H32.8996V19.2499H27.9997C26.8399 19.2499 25.8997 20.19 25.8997 21.3498C25.8997 22.5096 26.8399 23.4498 27.9997 23.4498H34.9996C36.9315 23.4475 38.4972 21.8818 38.4995 19.9499C38.4988 19.2278 38.2727 18.5241 37.8527 17.9367C39.7378 18.3644 40.9193 20.2392 40.4916 22.1243C40.1317 23.7107 38.7262 24.84 37.0995 24.8498H33.5996H27.2997C25.3667 24.8498 23.7997 23.2828 23.7997 21.3498C23.7997 19.4169 25.3667 17.8499 27.2997 17.8499H34.9996ZM18.8998 8.05001C18.8998 6.26013 20.2472 4.39886 20.9997 3.50007C21.7529 4.39816 23.0997 6.25593 23.0997 8.05001C23.096 8.93673 22.5358 9.72562 21.6997 10.0212V8.75H20.2997V10.0212C19.4637 9.72562 18.9034 8.93673 18.8998 8.05001ZM9.09989 22.1744C10.6638 23.227 11.6764 24.9226 11.8614 26.7986C10.8173 27.2155 9.87705 27.8556 9.10619 28.6739C8.32972 27.8587 7.385 27.2226 6.33772 26.8098C6.51946 24.9295 7.53269 23.2291 9.09989 22.1744ZM12.6112 28.0059C13.2823 27.7702 13.9885 27.6498 14.6998 27.6498C14.8097 27.6498 14.9245 27.654 15.0442 27.6617C16.1975 30.9444 14.4712 34.5403 11.1885 35.6935C10.5174 35.9293 9.81117 36.0497 9.09989 36.0497C8.98999 36.0497 8.87519 36.0455 8.75549 36.0378C7.60226 32.7551 9.32852 29.1591 12.6112 28.0059ZM2.79997 29.7497C2.79909 29.0385 2.91931 28.3324 3.15556 27.6617C3.27526 27.654 3.39006 27.6498 3.49996 27.6498C5.31258 27.6443 7.0378 28.428 8.2263 29.7966C7.0784 31.561 6.7158 33.7232 7.22531 35.7655C4.59256 34.9449 2.79944 32.5074 2.79997 29.7497ZM14.2672 38.8496H3.93255L3.23256 37.4496H14.9672L14.2672 38.8496ZM20.9997 38.8496H15.8324L16.5324 37.4496H18.1998V36.0497H13.5133C16.4963 33.9665 17.6107 30.0776 16.1838 26.7307C16.0855 26.5007 15.8721 26.3406 15.6238 26.3107C14.8273 26.2083 14.0193 26.2367 13.2319 26.3947C13.1227 25.6161 12.8945 24.859 12.555 24.1498H12.5998V14.9505L29.3996 12.3662V16.4499H27.2997C24.597 16.4463 22.4031 18.6344 22.3995 21.3371C22.3978 22.6788 22.9469 23.9624 23.9187 24.8876C21.2354 25.2042 19.3169 27.6361 19.6334 30.3194C19.7648 31.4328 20.2745 32.4673 21.0774 33.2497H20.2997C19.9132 33.2497 19.5998 33.5631 19.5998 33.9497V36.7497C19.5998 37.1362 19.9132 37.4496 20.2997 37.4496H20.9997V38.8496ZM24.0671 38.8496H22.3997V37.4496H24.7671L24.0671 38.8496ZM29.3996 38.8496H25.6323L26.3323 37.4496H29.3996V38.8496ZM39.1995 38.8496H37.5321L36.8321 37.4496H39.1995V38.8496ZM40.5995 36.0497H20.9997V34.6497H40.5995V36.0497Z" fill="#FB0C69"/>
<path d="M15.4 16.4501H14V22.05H15.4V16.4501Z" fill="#FB0C69"/>
<path d="M15.4 23.45H14V24.8499H15.4V23.45Z" fill="#FB0C69"/>
</svg>
