<svg width="12" height="12" viewBox="0 0 12 12" fill="none" xmlns="http://www.w3.org/2000/svg">
<g clip-path="url(#clip0)">
<path d="M11.731 9.48357L9.87776 7.63015C9.50863 7.2625 8.89735 7.27367 8.51537 7.6558L7.58171 8.58925C7.52273 8.55674 7.46167 8.52278 7.39748 8.48675C6.80789 8.16006 6.00093 7.7123 5.15177 6.86252C4.3001 6.01095 3.85192 5.20275 3.52423 4.61278C3.48965 4.55028 3.45652 4.49001 3.42381 4.43279L4.05043 3.8071L4.3585 3.49865C4.74107 3.11597 4.75162 2.50487 4.38335 2.13616L2.53014 0.282531C2.16188 -0.0856634 1.55032 -0.0744935 1.16775 0.308181L0.645455 0.833478L0.659728 0.847647C0.484594 1.07112 0.338248 1.32885 0.229341 1.60679C0.128949 1.87135 0.0664456 2.12381 0.0378657 2.37679C-0.206839 4.40545 0.720198 6.25949 3.23605 8.77538C6.71373 12.2528 9.51629 11.9901 9.63719 11.9773C9.90051 11.9458 10.1529 11.8829 10.4093 11.7833C10.6849 11.6757 10.9424 11.5295 11.1657 11.3548L11.1772 11.3649L11.7063 10.8468C12.0881 10.4642 12.0991 9.85286 11.731 9.48357Z" fill="#FB0C69"/>
</g>
<defs>
<clipPath id="clip0">
<rect width="12" height="12" fill="white"/>
</clipPath>
</defs>
</svg>
