<svg width="30" height="30" viewBox="0 0 30 30" fill="none" xmlns="http://www.w3.org/2000/svg">
<rect width="30" height="30" fill="white"/>
<circle cx="15" cy="15" r="15" fill="#FB0C69"/>
<path d="M21.4239 21.44H8.61062C7.71583 21.44 7 20.6026 7 19.5559V9.88412C7 8.83738 7.71583 8 8.61062 8H21.3882C22.2829 8 22.9988 8.83738 22.9988 9.88412V19.5559C23.0345 20.6026 22.2829 21.44 21.4239 21.44ZM8.61062 9.25609C8.32428 9.25609 8.07376 9.54919 8.07376 9.88412V19.5559C8.07376 19.8908 8.32431 20.1839 8.61062 20.1839H21.3882C21.6745 20.1839 21.925 19.8908 21.925 19.5559V9.88412C21.925 9.54915 21.6745 9.25609 21.3882 9.25609H8.61062V9.25609Z" fill="white"/>
<path d="M15.0195 17.0438C14.8764 17.0438 14.769 17.0019 14.6616 16.8763L7.50332 9.46546C7.28856 9.2561 7.25277 8.83743 7.46753 8.58621C7.64649 8.33498 8.00439 8.29311 8.21915 8.54434L15.0195 15.5784L21.8199 8.54434C22.0346 8.33498 22.3925 8.33498 22.5715 8.58621C22.7504 8.83743 22.7504 9.2561 22.5357 9.46546L15.3774 16.8763C15.2701 16.96 15.1269 17.0438 15.0195 17.0438Z" fill="white"/>
<path d="M7.64247 20.8538C7.4993 20.8538 7.35612 20.7701 7.24878 20.6445C7.03402 20.3932 7.06981 19.9746 7.28457 19.7652L12.3669 14.1547C12.5817 13.9035 12.9396 13.9454 13.1186 14.1966C13.3333 14.4478 13.2975 14.8665 13.0828 15.0759L8.03616 20.6863C7.92881 20.7701 7.78564 20.8538 7.64247 20.8538Z" fill="white"/>
<path d="M22.3532 20.8538C22.21 20.8538 22.1026 20.8119 21.9953 20.6863L16.9129 15.0758C16.6982 14.8246 16.6982 14.4478 16.8771 14.1966C17.0919 13.9453 17.414 13.9453 17.6287 14.1547L22.7111 19.7652C22.9259 20.0164 22.9259 20.3932 22.7469 20.6444C22.6395 20.77 22.4964 20.8538 22.3532 20.8538Z" fill="white"/>
</svg>
