<svg width="30" height="30" viewBox="0 0 30 30" fill="none" xmlns="http://www.w3.org/2000/svg">
<rect width="30" height="30" fill="white"/>
<circle cx="15" cy="15" r="15" fill="#FB0C69"/>
<path d="M14.0469 22.1623V23.9898L13.606 23.6328C13.5379 23.5776 11.9173 22.2587 10.2739 20.3673C8.00687 17.7581 6.85742 15.416 6.85742 13.4062V13.207C6.85742 9.23307 10.0826 6 14.0469 6C18.0112 6 21.2363 9.23307 21.2363 13.207V13.4062C21.2363 13.575 21.2274 13.7464 21.2112 13.9199L19.8052 12.6341C19.5172 9.70347 17.0448 7.40625 14.0469 7.40625C10.8562 7.40625 8.26024 10.0085 8.26024 13.207V13.4062C8.26024 16.8025 12.6254 20.9138 14.0469 22.1623ZM18.3605 21.1523H20.4647V19.043H18.3605V21.1523ZM14.0469 10.2188C15.6906 10.2188 17.0279 11.5593 17.0279 13.207C17.0279 14.8548 15.6906 16.1953 14.0469 16.1953C12.4032 16.1953 11.0659 14.8548 11.0659 13.207C11.0659 11.5593 12.4032 10.2188 14.0469 10.2188ZM14.0469 11.625C13.1766 11.625 12.4687 12.3347 12.4687 13.207C12.4687 14.0793 13.1766 14.7891 14.0469 14.7891C14.917 14.7891 15.6251 14.0793 15.6251 13.207C15.6251 12.3347 14.917 11.625 14.0469 11.625ZM23.912 20.1967L23.5176 19.836V22.0936C23.5176 23.1448 22.6644 24 21.6158 24H17.1744C16.1258 24 15.2725 23.1448 15.2725 22.0936V19.836L14.8781 20.1967L13.9328 19.1579L19.395 14.1624L24.8574 19.1579L23.912 20.1967ZM22.1148 18.5531L19.395 16.0659L16.6754 18.5531V22.0935C16.6754 22.3694 16.8992 22.5938 17.1744 22.5938H21.6158C21.891 22.5938 22.1148 22.3694 22.1148 22.0935V18.5531Z" fill="white"/>
</svg>
