<svg width="30" height="30" viewBox="0 0 30 30" fill="none" xmlns="http://www.w3.org/2000/svg">
<rect width="30" height="30" fill="white"/>
<circle cx="15" cy="15" r="15" fill="#FB0C69"/>
<path d="M20.6847 17.1793C20.0966 16.5987 19.3624 16.5987 18.7781 17.1793C18.3324 17.6213 17.8867 18.0632 17.4484 18.5127C17.3286 18.6363 17.2274 18.6625 17.0813 18.5801C16.7929 18.4228 16.4858 18.2955 16.2086 18.1232C14.9164 17.3104 13.8339 16.2653 12.875 15.0892C12.3993 14.5049 11.976 13.8794 11.6801 13.1752C11.6202 13.0328 11.6314 12.9392 11.7475 12.8231C12.1933 12.3923 12.6278 11.9503 13.066 11.5084C13.6765 10.8941 13.6765 10.1749 13.0623 9.55687C12.7139 9.20478 12.3656 8.86018 12.0172 8.50809C11.6576 8.14851 11.3018 7.78518 10.9385 7.42935C10.3504 6.85626 9.61627 6.85626 9.03195 7.43309C8.58247 7.87508 8.15172 8.3283 7.69475 8.7628C7.27149 9.16358 7.05799 9.65426 7.01304 10.2273C6.94188 11.16 7.17036 12.0402 7.49249 12.898C8.15172 14.6734 9.15555 16.2503 10.3729 17.6962C12.0172 19.6514 13.9799 21.1983 16.276 22.3145C17.3098 22.8165 18.3811 23.2023 19.546 23.2659C20.3475 23.3109 21.0442 23.1086 21.6023 22.4831C21.9844 22.0561 22.4151 21.6666 22.8197 21.2583C23.419 20.6515 23.4227 19.9173 22.8272 19.318C22.1155 18.6026 21.4001 17.8909 20.6847 17.1793Z" fill="white"/>
</svg>
