<svg width="30" height="30" viewBox="0 0 30 30" fill="none" xmlns="http://www.w3.org/2000/svg">
<rect width="30" height="30" fill="white"/>
<circle cx="15" cy="15" r="15" fill="#FB0C69"/>
<path d="M15 6C10.0375 6 6 10.0375 6 15C6 19.9625 10.0375 24 15 24C19.9625 24 24 19.9625 24 15C24 10.0375 19.9625 6 15 6ZM15 22.875C10.6576 22.875 7.12501 19.3424 7.12501 15C7.12501 10.6576 10.6576 7.12501 15 7.12501C19.3424 7.12501 22.875 10.6576 22.875 15C22.875 19.3424 19.3424 22.875 15 22.875V22.875Z" fill="white"/>
<path d="M15.5625 9.375H14.4375V15.2329L17.9773 18.7727L18.7727 17.9773L15.5625 14.7671V9.375Z" fill="white"/>
</svg>
