<svg width="42" height="42" viewBox="0 0 42 42" fill="none" xmlns="http://www.w3.org/2000/svg">
<g clip-path="url(#clip0)">
<path d="M40.2451 18.7022C40.6136 18.8118 40.951 19.0117 41.2298 19.2908C41.6736 19.7333 41.9181 20.3226 41.9181 20.95C41.9181 21.5761 41.6739 22.1654 41.2304 22.6089L40.2137 23.6256C40.5748 23.7333 40.9154 23.9294 41.2 24.2143C41.6428 24.6571 41.8867 25.2461 41.8867 25.8729C41.8867 26.5003 41.6428 27.0896 41.2 27.5324L35.3587 33.3739C33.8976 34.8348 31.9339 35.8506 29.9713 36.1598C27.7026 36.5177 25.6265 35.8884 24.1252 34.3871L22.7932 33.0551C21.9719 32.2341 21.34 31.2744 20.9177 30.2292C20.4954 31.2741 19.8631 32.2338 19.0422 33.0548L17.7105 34.3871C15.1053 36.9926 11.4697 36.5007 8.93566 35.1719C8.63413 35.0136 8.51781 34.6412 8.6761 34.3397C8.83408 34.0382 9.20674 33.9219 9.50795 34.0802C11.6539 35.2055 14.7064 35.6481 16.8389 33.5156L18.1703 32.1835C19.5449 30.8092 20.3018 28.982 20.3018 27.0389V18.7025C20.3018 17.8995 19.6481 17.2461 18.8445 17.2461C18.0418 17.2461 17.3884 17.8998 17.3884 18.7041L17.3929 22.9764L18.4273 24.0111C18.6682 24.2518 18.6682 24.6421 18.4276 24.8827C18.1866 25.1237 17.7963 25.1237 17.5557 24.883L7.57637 14.9034C7.36552 14.6929 7.0861 14.5769 6.78938 14.5769C6.4917 14.5769 6.2126 14.6926 6.00207 14.9037C5.5682 15.337 5.56788 16.0426 6.00175 16.4767C6.00303 16.478 6.00399 16.4796 6.00528 16.4809L12.3916 22.8672C12.6322 23.1078 12.6322 23.4981 12.3916 23.7388C12.1509 23.9794 11.7606 23.9794 11.52 23.7388L3.59048 15.809C3.38027 15.5987 3.10053 15.4828 2.80317 15.4828C2.50548 15.4828 2.22606 15.5987 2.01554 15.809C1.80565 16.0192 1.68998 16.2986 1.68998 16.5959C1.68998 16.8939 1.80565 17.1737 2.01554 17.3839L9.54705 24.9151C9.78769 25.1557 9.78769 25.546 9.54705 25.7867C9.3064 26.0273 8.91611 26.0273 8.67546 25.7867L3.05407 20.1653C3.05311 20.1643 3.05215 20.1637 3.0515 20.163C2.8413 19.9531 2.56156 19.8371 2.26355 19.8371C1.96619 19.8371 1.68677 19.9531 1.47592 20.1637C1.26636 20.3726 1.151 20.652 1.151 20.95C1.151 21.2477 1.26668 21.5271 1.47657 21.737L7.6129 27.8733C7.85355 28.114 7.85355 28.5043 7.6129 28.7449C7.37193 28.9859 6.98164 28.9859 6.741 28.7449L3.08195 25.0859L3.08163 25.0856C2.87142 24.8753 2.592 24.7597 2.29464 24.7597C1.99727 24.7597 1.71785 24.8753 1.50797 25.0859C1.29776 25.2958 1.18209 25.5755 1.18209 25.8729C1.18209 26.1709 1.29776 26.4506 1.50765 26.6605L7.34918 32.502C7.44019 32.593 7.53215 32.6808 7.62251 32.7632C7.87437 32.9926 7.89264 33.3823 7.66353 33.6341C7.43442 33.8857 7.04445 33.9039 6.79291 33.6748C6.68812 33.5793 6.58206 33.4784 6.4776 33.3739L0.636064 27.5324C0.193223 27.0892 -0.0506286 26.5 -0.0506286 25.8729C-0.0506286 25.2461 0.193223 24.6568 0.636064 24.2143C0.915163 23.9349 1.25258 23.7343 1.62076 23.6244L0.604982 22.6086C0.16182 22.1661 -0.0820312 21.5768 -0.0820312 20.95C-0.0820312 20.3223 0.16214 19.733 0.604661 19.2914C0.884081 19.012 1.22182 18.8118 1.59032 18.7022L1.14395 18.2555C0.700792 17.8126 0.456941 17.2234 0.456941 16.5959C0.456941 15.9692 0.701112 15.3802 1.14395 14.9374C1.58712 14.4942 2.1764 14.25 2.80285 14.25C3.42962 14.25 4.0189 14.4942 4.46206 14.9374L4.54217 15.0172C4.64952 14.6564 4.8453 14.3164 5.12985 14.0321C5.57269 13.5883 6.16197 13.3442 6.78906 13.3442C7.41551 13.3442 8.00447 13.5883 8.44795 14.0315L16.1589 21.7418L16.1554 18.7031C16.1554 17.2201 17.3618 16.0134 18.8445 16.0134C19.6779 16.0134 20.4242 16.3944 20.9177 16.991C21.4115 16.3944 22.1575 16.0134 22.9906 16.0134C24.4732 16.0134 25.6797 17.2201 25.6797 18.7054L25.6768 21.7421L30.5788 16.8398C30.8198 16.5991 31.2101 16.5991 31.4507 16.8398C31.6914 17.0804 31.6914 17.4707 31.4507 17.7114L24.2794 24.8827C24.0387 25.1234 23.6484 25.1234 23.4078 24.8827C23.1668 24.6421 23.1668 24.2518 23.4078 24.0111L24.4431 22.9758L24.447 18.7031C24.447 17.8998 23.7936 17.2461 22.9906 17.2461C22.1876 17.2461 21.5342 17.8995 21.5342 18.7025V27.0389C21.5342 28.9827 22.2908 30.8095 23.6648 32.1835L24.9968 33.5156C26.5538 35.0726 28.4569 35.1507 29.7793 34.9425C31.4648 34.6765 33.2246 33.7642 34.4868 32.5023L40.3284 26.6608C40.5383 26.4506 40.6539 26.1709 40.6539 25.8729C40.6539 25.5755 40.5383 25.2958 40.3284 25.0859C39.8945 24.652 39.1892 24.6517 38.755 25.0843C38.7544 25.0849 38.7541 25.0856 38.7534 25.0859L35.0944 28.7452C34.8537 28.9859 34.4634 28.9859 34.2228 28.7452C33.9818 28.5043 33.9818 28.114 34.2228 27.8733L40.3585 21.7373C40.5693 21.5265 40.6853 21.2471 40.6853 20.95C40.6853 20.6527 40.5693 20.3732 40.3585 20.163C40.1486 19.9531 39.8692 19.8375 39.5718 19.8375C39.2741 19.8375 38.9947 19.9531 38.7845 20.163C38.782 20.1656 38.7794 20.1678 38.7765 20.1704L33.1602 25.787C32.9193 26.0276 32.5293 26.0276 32.2883 25.787C32.0477 25.546 32.0477 25.1557 32.2883 24.9154L39.8198 17.3839C40.0304 17.1734 40.146 16.8936 40.146 16.5963C40.146 16.2992 40.0304 16.0198 39.8195 15.8093C39.6093 15.5987 39.3299 15.4831 39.0325 15.4831C38.7355 15.4831 38.4557 15.5987 38.2455 15.8093L30.3157 23.7388C30.0748 23.9794 29.6848 23.9794 29.4438 23.7388C29.2032 23.4981 29.2032 23.1078 29.4438 22.8672L35.8346 16.4767C35.8349 16.4764 35.8352 16.4761 35.8356 16.4758C36.2678 16.0419 36.2672 15.337 35.834 14.9034C35.6234 14.6929 35.3434 14.5769 35.046 14.5769C34.7493 14.5769 34.4695 14.6929 34.259 14.9034L33.1932 15.9695C32.9523 16.2101 32.562 16.2101 32.3213 15.9695C32.0807 15.7285 32.0807 15.3386 32.3213 15.0979L33.3874 14.0318C33.8309 13.5883 34.4199 13.3442 35.046 13.3442C35.6728 13.3442 36.2621 13.5883 36.7055 14.0318C36.9901 14.3164 37.1862 14.6567 37.2935 15.0178L37.374 14.9374C37.8171 14.4945 38.4064 14.2504 39.0329 14.2504C39.6593 14.2504 40.2483 14.4945 40.6914 14.9374C41.1349 15.3809 41.3791 15.9698 41.3791 16.5963C41.3791 17.223 41.1349 17.8123 40.6917 18.2555L40.2451 18.7022Z" fill="#FB0C69"/>
<path d="M21.1671 10.0834C23.9696 10.0834 26.6548 11.2774 28.5339 13.3592C28.762 13.6117 28.7422 14.0014 28.4893 14.2295C28.2368 14.4577 27.8469 14.4378 27.6187 14.185C25.973 12.362 23.6216 11.3161 21.1671 11.3161C18.7129 11.3161 16.3612 12.362 14.7154 14.185C14.4873 14.4378 14.0976 14.4577 13.8448 14.2295C13.5923 14.0017 13.5724 13.6117 13.8003 13.3592C15.6796 11.2774 18.3645 10.0834 21.1671 10.0834Z" fill="#FB0C69"/>
<path d="M29.8231 10.1077C27.4291 8.01049 24.3552 6.85564 21.1668 6.85564C17.9788 6.85564 14.9046 8.01049 12.5109 10.1077C12.2549 10.332 11.8652 10.3064 11.6409 10.0501C11.4166 9.79403 11.4426 9.40471 11.6986 9.1804C14.3172 6.88609 17.6799 5.62293 21.1668 5.62293C24.6541 5.62293 28.0165 6.88641 30.6354 9.1804C30.8914 9.40471 30.917 9.79403 30.6927 10.0501C30.4684 10.3061 30.0791 10.332 29.8231 10.1077Z" fill="#FB0C69"/>
</g>
<defs>
<clipPath id="clip0">
<rect width="42" height="42" transform="matrix(1 0 0 -1 0 42)" fill="white"/>
</clipPath>
</defs>
</svg>
