<svg width="15" height="15" viewBox="0 0 15 15" fill="none" xmlns="http://www.w3.org/2000/svg">
<path d="M11.0156 0.878906C10.2017 0.878906 9.45542 1.13684 8.79765 1.64555C8.16703 2.13325 7.74718 2.75443 7.5 3.20613C7.25282 2.7544 6.83297 2.13325 6.20235 1.64555C5.54458 1.13684 4.79833 0.878906 3.98438 0.878906C1.71293 0.878906 0 2.73683 0 5.20061C0 7.86234 2.137 9.68347 5.37214 12.4404C5.92151 12.9086 6.54422 13.4393 7.19145 14.0053C7.27676 14.08 7.38633 14.1211 7.5 14.1211C7.61367 14.1211 7.72324 14.08 7.80856 14.0053C8.45584 13.4392 9.07852 12.9086 9.62821 12.4401C12.863 9.68347 15 7.86234 15 5.20061C15 2.73683 13.2871 0.878906 11.0156 0.878906Z" fill="white"/>
</svg>
