<svg width="17" height="17" viewBox="0 0 17 17" fill="none" xmlns="http://www.w3.org/2000/svg">
<path d="M8.50051 0C5.10565 0 2.34375 2.7619 2.34375 6.15672C2.34375 10.3698 7.85344 16.5548 8.08802 16.8161C8.30836 17.0615 8.69305 17.0611 8.91299 16.8161C9.14757 16.5548 14.6573 10.3698 14.6573 6.15672C14.6572 2.7619 11.8953 0 8.50051 0ZM8.50051 9.25434C6.79247 9.25434 5.40292 7.86476 5.40292 6.15672C5.40292 4.44869 6.7925 3.05914 8.50051 3.05914C10.2085 3.05914 11.5981 4.44872 11.5981 6.15676C11.5981 7.86479 10.2085 9.25434 8.50051 9.25434Z" fill="#292A2A"/>
</svg>
