<svg width="26" height="26" viewBox="0 0 26 26" fill="none" xmlns="http://www.w3.org/2000/svg">
<circle cx="13" cy="13" r="13" fill="#FB0C69"/>
<g clip-path="url(#clip0)">
<path d="M18.731 16.4836L16.8778 14.6301C16.5086 14.2625 15.8974 14.2737 15.5154 14.6558L14.5817 15.5892C14.5227 15.5567 14.4617 15.5228 14.3975 15.4868C13.8079 15.1601 13.0009 14.7123 12.1518 13.8625C11.3001 13.011 10.8519 12.2028 10.5242 11.6128C10.4897 11.5503 10.4565 11.49 10.4238 11.4328L11.0504 10.8071L11.3585 10.4986C11.7411 10.116 11.7516 9.50487 11.3834 9.13616L9.53014 7.28253C9.16188 6.91434 8.55032 6.92551 8.16775 7.30818L7.64546 7.83348L7.65973 7.84765C7.48459 8.07112 7.33825 8.32885 7.22934 8.60679C7.12895 8.87135 7.06645 9.12381 7.03787 9.37679C6.79316 11.4054 7.7202 13.2595 10.2361 15.7754C13.7137 19.2528 16.5163 18.9901 16.6372 18.9773C16.9005 18.9458 17.1529 18.8829 17.4093 18.7833C17.6849 18.6757 17.9424 18.5295 18.1657 18.3548L18.1772 18.3649L18.7063 17.8468C19.0881 17.4642 19.0991 16.8529 18.731 16.4836Z" fill="white"/>
</g>
<defs>
<clipPath id="clip0">
<rect x="7" y="7" width="12" height="12" fill="white"/>
</clipPath>
</defs>
</svg>
