<svg width="42" height="42" viewBox="0 0 42 42" fill="none" xmlns="http://www.w3.org/2000/svg">
<path d="M40.1816 25.1469C38.1672 24.7384 36.1135 24.5564 34.0587 24.6041C35.24 21.6149 35.4835 18.0108 34.7714 13.8607C34.756 13.7719 34.7226 13.6873 34.673 13.6121C34.6235 13.5368 34.5591 13.4726 34.4837 13.4233C34.4082 13.3741 34.3235 13.3409 34.2347 13.3258C34.1459 13.3107 34.055 13.3141 33.9675 13.3357C31.7501 13.9597 29.638 14.9108 27.701 16.1576C26.4409 12.7211 24.2837 9.68476 21.4535 7.3638C21.3265 7.26571 21.1679 7.21756 21.0078 7.22844C20.8477 7.23932 20.6972 7.30849 20.5846 7.42287C17.6741 10.3832 15.7284 13.4249 14.7755 16.4791C12.7112 15.0758 10.4344 14.0139 8.03252 13.3344C7.94508 13.3128 7.85413 13.3094 7.76534 13.3245C7.67654 13.3396 7.5918 13.3728 7.51639 13.422C7.44098 13.4713 7.37651 13.5355 7.327 13.6108C7.27749 13.686 7.244 13.7706 7.22862 13.8594C6.51659 18.0095 6.76268 21.613 7.9413 24.6028C5.88652 24.5551 3.83284 24.7371 1.81849 25.1455C1.72648 25.1669 1.64021 25.2081 1.56565 25.2661C1.4911 25.3241 1.43003 25.3976 1.38668 25.4815C1.34311 25.5652 1.31809 25.6573 1.31333 25.7515C1.30858 25.8458 1.32419 25.9399 1.35912 26.0275C4.21118 33.1689 9.77027 34.8141 14.2872 34.8141C16.5695 34.7996 18.8352 34.424 21 33.7011C23.1649 34.425 25.4308 34.8015 27.7135 34.8167C32.2298 34.8167 37.7895 33.1708 40.6416 26.0302C40.6765 25.9425 40.6921 25.8484 40.6874 25.7542C40.6826 25.6599 40.6576 25.5679 40.614 25.4842C40.5707 25.3999 40.5096 25.3261 40.435 25.2679C40.3603 25.2096 40.2738 25.1683 40.1816 25.1469ZM32.6038 24.675C30.2008 24.8228 27.8551 25.471 25.7171 26.5781C25.6024 26.6061 25.4975 26.6652 25.414 26.7488C24.0856 27.5157 22.927 28.5448 22.0087 29.7734C22.0374 28.5614 21.9253 27.3502 21.6746 26.164C22.4621 22.8323 24.4867 19.9953 27.7121 17.726C29.523 16.4768 31.5051 15.496 33.5967 14.8142C34.1572 18.6743 33.8186 21.9844 32.6038 24.675ZM21.0978 8.77277C22.2535 9.79587 25.3247 12.8199 26.5742 16.9411C24.0814 18.6948 22.1463 21.1291 21 23.9531C19.9368 21.312 18.1729 19.0112 15.8983 17.2988C16.6917 14.4513 18.4315 11.5874 21.0978 8.77277ZM8.40593 14.8103C10.6802 15.5504 12.8226 16.6469 14.7532 18.0587C17.5253 20.0005 19.504 22.8769 20.3261 26.1601C20.0749 27.3462 19.9626 28.5575 19.9914 29.7695C17.3329 26.1995 13.1073 24.9697 9.39555 24.6717C8.18149 21.9844 7.84287 18.6736 8.40593 14.8122V14.8103ZM13.3836 33.5055C8.47024 33.2391 4.94421 30.807 2.8908 26.2763C5.86558 25.7696 16.594 24.5648 20.1318 32.6078C17.951 33.294 15.668 33.5984 13.3836 33.5075V33.5055ZM28.6165 33.5055C26.3321 33.5956 24.0492 33.2913 21.8682 32.6058C25.4054 24.5654 36.1331 25.7703 39.1125 26.2763C37.0558 30.807 33.5298 33.2391 28.6165 33.5075V33.5055Z" fill="#FB0C69"/>
<path d="M21.6562 12.0042H20.3438V13.3167H21.6562V12.0042Z" fill="#FB0C69"/>
<path d="M21.6562 14.6292H20.3438V15.9417H21.6562V14.6292Z" fill="#FB0C69"/>
<path d="M21.6562 17.2542H20.3438V18.5667H21.6562V17.2542Z" fill="#FB0C69"/>
<path d="M9.1875 17.2542C9.22003 19.0028 9.7106 20.7124 10.6102 22.2122L11.7023 21.4837C10.9497 20.1982 10.536 18.7427 10.5 17.2535L9.1875 17.2542Z" fill="#FB0C69"/>
<path d="M32.8126 17.2542H31.5001C31.4666 18.7434 31.0527 20.1994 30.2979 21.4837L31.3899 22.2121C32.2895 20.7123 32.7801 19.0028 32.8126 17.2542Z" fill="#FB0C69"/>
</svg>
